<svg xmlns="http://www.w3.org/2000/svg" xmlns:xlink="http://www.w3.org/1999/xlink" width="124" height="26" viewBox="0 0 303.13 64.55"><defs><style>.cls-1{fill:url(#linear-gradient);}.cls-2{fill:url(#linear-gradient-2);}.cls-3{fill:url(#linear-gradient-3);}.cls-4{fill:#34405c;}</style><linearGradient id="linear-gradient" x1="11.91" y1="12.71" x2="68.82" y2="12.71" gradientUnits="userSpaceOnUse"><stop offset="0" stop-color="#448eff"></stop><stop offset="1" stop-color="#005ced"></stop></linearGradient><linearGradient id="linear-gradient-2" x1="37.63" y1="40.22" x2="69.2" y2="40.22" xlink:href="#linear-gradient"></linearGradient><linearGradient id="linear-gradient-3" x1="0" y1="38.46" x2="43.09" y2="38.46" xlink:href="#linear-gradient"></linearGradient></defs><title>Asset 1</title><g id="Layer_2" data-name="Layer 2"><g id="Layer_1-2" data-name="Layer 1"><path class="cls-1" d="M13.88,20.4c.41,1.08.88,2.16,1.38,3.22l.85,1.8,1.47-1.33A49,49,0,0,1,50.31,11.48h.26a49,49,0,0,1,15.9,2.76l2.35.82-.4-2.45a59.69,59.69,0,0,0-2.48-9.85L65.68,2l-.78-.19a59,59,0,0,0-10-1.63C53.34.06,51.8,0,50.28,0,49.19,0,48.09,0,47,.09A60.51,60.51,0,0,0,12.64,13.22l-.73.59.22.91A47.15,47.15,0,0,0,13.88,20.4Z"></path><path class="cls-2" d="M69.17,20.45l0-.93-.86-.38a45.16,45.16,0,0,0-9-2.85l-2-.4.19,2a48.63,48.63,0,0,1-6.47,29.06,49.48,49.48,0,0,1-4.27,6.18,49,49,0,0,1-6.92,7l-2.23,1.82,2.78.75a60.37,60.37,0,0,0,10.84,1.85l.7.06.48-.51a60.48,60.48,0,0,0,11-16A60.58,60.58,0,0,0,69.17,20.45Z"></path><path class="cls-3" d="M41.49,53.24l1.6-1.7-2.22-.72a48.53,48.53,0,0,1-24.2-17.34,49.11,49.11,0,0,1-3.79-5.95,50.47,50.47,0,0,1-2.62-5.74c-.35-.9-.66-1.81-.94-2.69l-.75-2.37-1.72,1.8a59.35,59.35,0,0,0-6.4,7.91L0,27.1l.31.74a59.66,59.66,0,0,0,4.72,9A58.53,58.53,0,0,0,9.7,43.18a60.7,60.7,0,0,0,22.67,16.7l.73.31.67-.44A45.29,45.29,0,0,0,41.49,53.24Z"></path><path class="cls-4" d="M94.28,50.82A8,8,0,0,0,99,52a13.47,13.47,0,0,0,3-.35,15.76,15.76,0,0,0,2.74-.87,6.24,6.24,0,0,1,1.17,1.7,5.22,5.22,0,0,1,.48,2.3,5.11,5.11,0,0,1-2.35,4.3q-2.34,1.7-7.55,1.69-6.87,0-10.82-3.08t-4-10.21V7.65c.46-.11,1.14-.26,2-.43A14.86,14.86,0,0,1,86.68,7a7.18,7.18,0,0,1,4.48,1.13c1,.75,1.43,2.08,1.43,4v7.21h12.77a7.78,7.78,0,0,1,.78,1.83,8.25,8.25,0,0,1,.35,2.43,4.51,4.51,0,0,1-1,3.3,3.76,3.76,0,0,1-2.78,1H92.59V46.83A4.57,4.57,0,0,0,94.28,50.82Z"></path><path class="cls-4" d="M122.57,59.51l-2.09.43a14.65,14.65,0,0,1-3,.26A7.38,7.38,0,0,1,113,59.07q-1.47-1.12-1.47-4V27.54a6.7,6.7,0,0,1,1-3.82,9.48,9.48,0,0,1,3-2.78,24.63,24.63,0,0,1,6.64-2.69,33.3,33.3,0,0,1,8.56-1q8.25,0,8.25,5.12a6.73,6.73,0,0,1-.39,2.3,9.71,9.71,0,0,1-.82,1.78,23.93,23.93,0,0,0-5-.43,23.07,23.07,0,0,0-5.73.69,20.68,20.68,0,0,0-4.6,1.74Z"></path><path class="cls-4" d="M142.12,6.17a5.87,5.87,0,0,1,1.78-4.29A6.18,6.18,0,0,1,148.46.09,6,6,0,0,1,153,1.88a5.91,5.91,0,0,1,1.74,4.29,6,6,0,0,1-6.26,6.17,6.17,6.17,0,0,1-4.56-1.78A6,6,0,0,1,142.12,6.17Zm.87,12.6c.46-.12,1.14-.26,2-.43a14.84,14.84,0,0,1,2.91-.27,7.38,7.38,0,0,1,4.56,1.13c1,.76,1.44,2.09,1.44,4V59.51c-.47.11-1.15.26-2.05.43a14.72,14.72,0,0,1-2.91.26,7.3,7.3,0,0,1-4.55-1.13q-1.44-1.12-1.44-4Z"></path><path class="cls-4" d="M193.73,17.55a6.48,6.48,0,0,1,3.78,1.05A3.9,3.9,0,0,1,199,22.07a17,17,0,0,1-.65,3.65q-.66,2.52-1.74,5.82c-.72,2.2-1.55,4.57-2.47,7.12s-1.89,5.05-2.87,7.51-2,4.8-3,7-1.89,4-2.7,5.56a7,7,0,0,1-2.6,1.13,16.3,16.3,0,0,1-3.82.43,12.6,12.6,0,0,1-4.3-.65,4.52,4.52,0,0,1-2.57-2.13c-.52-1-1.16-2.35-1.91-4.08s-1.56-3.71-2.43-5.91-1.77-4.53-2.69-7-1.81-4.91-2.65-7.34-1.62-4.78-2.35-7-1.32-4.28-1.78-6.08A7,7,0,0,1,161,18.29a7.93,7.93,0,0,1,3.34-.74,6.06,6.06,0,0,1,3.69,1.05,6.75,6.75,0,0,1,2.22,3.73l4.34,14.33q.52,1.74,1.17,3.69c.44,1.31.86,2.58,1.26,3.83s.8,2.43,1.18,3.56.68,2.07.91,2.82h.35q2.5-7.64,4.95-15.76t4.25-16a8.49,8.49,0,0,1,2.39-.91A12.19,12.19,0,0,1,193.73,17.55Z"></path><path class="cls-4" d="M212.94,44a10.31,10.31,0,0,0,4.51,6.43,15.53,15.53,0,0,0,8.17,2,20.25,20.25,0,0,0,6.73-1.08,24.27,24.27,0,0,0,5-2.3,5.62,5.62,0,0,1,2,1.91,4.74,4.74,0,0,1,.78,2.6A4.58,4.58,0,0,1,239,56.6a9.53,9.53,0,0,1-3.21,2.3,20.14,20.14,0,0,1-4.82,1.48,33.27,33.27,0,0,1-6,.52,29.81,29.81,0,0,1-9.33-1.39,19,19,0,0,1-7.21-4.22,19.52,19.52,0,0,1-4.69-7,25.71,25.71,0,0,1-1.7-9.73,24.49,24.49,0,0,1,1.65-9.38,19.24,19.24,0,0,1,4.48-6.69,18,18,0,0,1,6.55-4,23.82,23.82,0,0,1,7.91-1.3,22.13,22.13,0,0,1,7.82,1.34,18.06,18.06,0,0,1,6.08,3.74,17.06,17.06,0,0,1,4,5.73,18.32,18.32,0,0,1,1.43,7.25,4.84,4.84,0,0,1-1.26,3.65,6.36,6.36,0,0,1-3.52,1.57Zm9.64-18.5a9.74,9.74,0,0,0-7.12,2.82q-2.88,2.82-3.22,8l19.28-2.87a9.69,9.69,0,0,0-2.51-5.6C227.56,26.25,225.42,25.46,222.58,25.46Z"></path><path class="cls-4" d="M272.06,27.63a8.88,8.88,0,0,0-5.78-1.74,17.1,17.1,0,0,0-4.65.61,15.64,15.64,0,0,0-3.69,1.56V59.51l-2.08.43a14.72,14.72,0,0,1-3,.26,7.36,7.36,0,0,1-4.52-1.13c-1-.75-1.48-2.08-1.48-4V27.2a6,6,0,0,1,.87-3.39,9.57,9.57,0,0,1,2.69-2.52,22.51,22.51,0,0,1,6.69-2.91,34,34,0,0,1,9.21-1.17q8.94,0,13.85,3.95t4.91,11.59V59.51c-.46.11-1.14.26-2,.43a14.86,14.86,0,0,1-2.91.26,7.31,7.31,0,0,1-4.56-1.13c-1-.75-1.43-2.08-1.43-4v-22Q274.19,29.37,272.06,27.63Z"></path><path class="cls-4" d="M290.53,6.17a5.87,5.87,0,0,1,1.78-4.29A6.19,6.19,0,0,1,296.88.09a6,6,0,0,1,4.51,1.79,5.91,5.91,0,0,1,1.74,4.29,6,6,0,0,1-6.25,6.17,6.18,6.18,0,0,1-4.57-1.78A6,6,0,0,1,290.53,6.17Zm.87,12.6c.47-.12,1.15-.26,2-.43a14.84,14.84,0,0,1,2.91-.27,7.38,7.38,0,0,1,4.56,1.13c1,.76,1.44,2.09,1.44,4V59.51c-.47.11-1.15.26-2,.43a14.86,14.86,0,0,1-2.91.26,7.31,7.31,0,0,1-4.56-1.13q-1.44-1.12-1.44-4Z"></path></g></g></svg>